<svg xmlns="http://www.w3.org/2000/svg" width="980" height="640" viewBox="0 0 980 640">
<rect width="100%" height="100%" fill="#ffffff"/>
<text x="490.0" y="28" text-anchor="middle" font-family="Arial" font-size="20" font-weight="700">Token Throughput per GPU vs Interactivity</text>
<line x1="90" y1="550" x2="940" y2="550" stroke="#111827" stroke-width="1.5"/>
<line x1="90" y1="50" x2="90" y2="550" stroke="#111827" stroke-width="1.5"/>
<text x="515.0" y="612" text-anchor="middle" font-family="Arial" font-size="15">Interactivity, median tok/s/user</text>
<text x="22" y="300.0" text-anchor="middle" font-family="Arial" font-size="15" transform="rotate(-90 22 300.0)">Token Throughput per GPU, tok/s/GPU</text>
<line x1="90.0" y1="50" x2="90.0" y2="550" stroke="#e5e7eb"/>
<line x1="90" y1="550.0" x2="940" y2="550.0" stroke="#e5e7eb"/>
<text x="90.0" y="574" text-anchor="middle" font-family="Arial" font-size="12" fill="#374151">0.0</text>
<text x="78" y="554.0" text-anchor="end" font-family="Arial" font-size="12" fill="#374151">0.0</text>
<line x1="260.0" y1="50" x2="260.0" y2="550" stroke="#e5e7eb"/>
<line x1="90" y1="450.0" x2="940" y2="450.0" stroke="#e5e7eb"/>
<text x="260.0" y="574" text-anchor="middle" font-family="Arial" font-size="12" fill="#374151">10.6</text>
<text x="78" y="454.0" text-anchor="end" font-family="Arial" font-size="12" fill="#374151">147.1</text>
<line x1="430.0" y1="50" x2="430.0" y2="550" stroke="#e5e7eb"/>
<line x1="90" y1="350.0" x2="940" y2="350.0" stroke="#e5e7eb"/>
<text x="430.0" y="574" text-anchor="middle" font-family="Arial" font-size="12" fill="#374151">21.2</text>
<text x="78" y="354.0" text-anchor="end" font-family="Arial" font-size="12" fill="#374151">294.2</text>
<line x1="600.0" y1="50" x2="600.0" y2="550" stroke="#e5e7eb"/>
<line x1="90" y1="250.0" x2="940" y2="250.0" stroke="#e5e7eb"/>
<text x="600.0" y="574" text-anchor="middle" font-family="Arial" font-size="12" fill="#374151">31.8</text>
<text x="78" y="254.0" text-anchor="end" font-family="Arial" font-size="12" fill="#374151">441.3</text>
<line x1="770.0" y1="50" x2="770.0" y2="550" stroke="#e5e7eb"/>
<line x1="90" y1="150.0" x2="940" y2="150.0" stroke="#e5e7eb"/>
<text x="770.0" y="574" text-anchor="middle" font-family="Arial" font-size="12" fill="#374151">42.4</text>
<text x="78" y="154.0" text-anchor="end" font-family="Arial" font-size="12" fill="#374151">588.5</text>
<line x1="940.0" y1="50" x2="940.0" y2="550" stroke="#e5e7eb"/>
<line x1="90" y1="50.0" x2="940" y2="50.0" stroke="#e5e7eb"/>
<text x="940.0" y="574" text-anchor="middle" font-family="Arial" font-size="12" fill="#374151">53.0</text>
<text x="78" y="54.0" text-anchor="end" font-family="Arial" font-size="12" fill="#374151">735.6</text>
<circle cx="829.1" cy="299.6" r="6" fill="#2563eb"/>
<text x="838.1" y="290.6" font-family="Arial" font-size="12" fill="#111827">vllm_batch_n64_delay0_max1024_arrivalall_at_once</text>
<circle cx="608.4" cy="198.6" r="6" fill="#059669"/>
<text x="617.4" y="189.6" font-family="Arial" font-size="12" fill="#111827">vllm_batch_n128_delay0_max1024_arrivalall_at_once</text>
<circle cx="497.2" cy="136.2" r="6" fill="#dc2626"/>
<text x="506.2" y="127.2" font-family="Arial" font-size="12" fill="#111827">vllm_batch_n192_delay0_max1024_arrivalall_at_once</text>
<circle cx="417.8" cy="161.3" r="6" fill="#7c3aed"/>
<text x="426.8" y="152.3" font-family="Arial" font-size="12" fill="#111827">vllm_batch_n224_delay0_max1024_arrivalall_at_once</text>
<circle cx="410.7" cy="115.2" r="6" fill="#ea580c"/>
<text x="419.7" y="106.2" font-family="Arial" font-size="12" fill="#111827">vllm_batch_n256_delay0_max1024_arrivalall_at_once</text>
<circle cx="239.8" cy="324.8" r="6" fill="#0891b2"/>
<text x="248.8" y="315.8" font-family="Arial" font-size="12" fill="#111827">vllm_batch_n284_delay0_max1024_arrivalall_at_once</text>
<circle cx="220.8" cy="333.8" r="6" fill="#2563eb"/>
<text x="229.8" y="324.8" font-family="Arial" font-size="12" fill="#111827">vllm_batch_n312_delay0_max1024_arrivalall_at_once</text>
<circle cx="237.6" cy="293.6" r="6" fill="#059669"/>
<text x="246.6" y="284.6" font-family="Arial" font-size="12" fill="#111827">vllm_batch_n328_delay0_max1024_arrivalall_at_once</text>
<circle cx="242.6" cy="268.7" r="6" fill="#dc2626"/>
<text x="251.6" y="259.7" font-family="Arial" font-size="12" fill="#111827">vllm_batch_n348_delay0_max1024_arrivalall_at_once</text>
<circle cx="225.0" cy="287.0" r="6" fill="#7c3aed"/>
<text x="234.0" y="278.0" font-family="Arial" font-size="12" fill="#111827">vllm_batch_n368_delay0_max1024_arrivalall_at_once</text>
<circle cx="233.3" cy="258.5" r="6" fill="#ea580c"/>
<text x="242.3" y="249.5" font-family="Arial" font-size="12" fill="#111827">vllm_batch_n384_delay0_max1024_arrivalall_at_once</text>
</svg>