<svg xmlns="http://www.w3.org/2000/svg" width="1120" height="680" viewBox="0 0 1120 680">
<rect width="100%" height="100%" fill="#ffffff"/>
<text x="560.0" y="32" text-anchor="middle" font-family="Arial" font-size="20" font-weight="700">Per-GPU Token Throughput Breakdown</text>
<line x1="90" y1="530" x2="870" y2="530" stroke="#111827" stroke-width="1.5"/>
<line x1="90" y1="60" x2="90" y2="530" stroke="#111827" stroke-width="1.5"/>
<text x="22" y="295.0" text-anchor="middle" font-family="Arial" font-size="15" transform="rotate(-90 22 295.0)">tok/s/GPU</text>
<line x1="90" y1="530.0" x2="870" y2="530.0" stroke="#e5e7eb"/>
<text x="78" y="534.0" text-anchor="end" font-family="Arial" font-size="12" fill="#374151">0.0</text>
<line x1="90" y1="436.0" x2="870" y2="436.0" stroke="#e5e7eb"/>
<text x="78" y="440.0" text-anchor="end" font-family="Arial" font-size="12" fill="#374151">156.5</text>
<line x1="90" y1="342.0" x2="870" y2="342.0" stroke="#e5e7eb"/>
<text x="78" y="346.0" text-anchor="end" font-family="Arial" font-size="12" fill="#374151">313.1</text>
<line x1="90" y1="248.0" x2="870" y2="248.0" stroke="#e5e7eb"/>
<text x="78" y="252.0" text-anchor="end" font-family="Arial" font-size="12" fill="#374151">469.6</text>
<line x1="90" y1="154.0" x2="870" y2="154.0" stroke="#e5e7eb"/>
<text x="78" y="158.0" text-anchor="end" font-family="Arial" font-size="12" fill="#374151">626.2</text>
<line x1="90" y1="60.0" x2="870" y2="60.0" stroke="#e5e7eb"/>
<text x="78" y="64.0" text-anchor="end" font-family="Arial" font-size="12" fill="#374151">782.7</text>
<rect x="90.0" y="516.0" width="54.5" height="14.0" fill="#2563eb"/>
<rect x="90.0" y="294.8" width="54.5" height="221.2" fill="#dc2626"/>
<text x="117.3" y="552" text-anchor="middle" font-family="Arial" font-size="12" fill="#111827">64</text>
<text x="117.3" y="570" text-anchor="middle" font-family="Arial" font-size="10" fill="#4b5563">I 6% / C 0% / O 94%</text>
<rect x="162.5" y="510.1" width="54.5" height="19.9" fill="#2563eb"/>
<rect x="162.5" y="199.6" width="54.5" height="310.4" fill="#dc2626"/>
<text x="189.8" y="552" text-anchor="middle" font-family="Arial" font-size="12" fill="#111827">128</text>
<text x="189.8" y="570" text-anchor="middle" font-family="Arial" font-size="10" fill="#4b5563">I 6% / C 0% / O 94%</text>
<rect x="235.1" y="506.8" width="54.5" height="23.2" fill="#2563eb"/>
<rect x="235.1" y="141.3" width="54.5" height="365.5" fill="#dc2626"/>
<text x="262.4" y="552" text-anchor="middle" font-family="Arial" font-size="12" fill="#111827">192</text>
<text x="262.4" y="570" text-anchor="middle" font-family="Arial" font-size="10" fill="#4b5563">I 6% / C 0% / O 94%</text>
<rect x="307.6" y="508.0" width="54.5" height="22.0" fill="#2563eb"/>
<rect x="307.6" y="164.6" width="54.5" height="343.4" fill="#dc2626"/>
<text x="334.9" y="552" text-anchor="middle" font-family="Arial" font-size="12" fill="#111827">224</text>
<text x="334.9" y="570" text-anchor="middle" font-family="Arial" font-size="10" fill="#4b5563">I 6% / C 0% / O 94%</text>
<rect x="380.2" y="505.4" width="54.5" height="24.6" fill="#2563eb"/>
<rect x="380.2" y="121.3" width="54.5" height="384.1" fill="#dc2626"/>
<text x="407.5" y="552" text-anchor="middle" font-family="Arial" font-size="12" fill="#111827">256</text>
<text x="407.5" y="570" text-anchor="middle" font-family="Arial" font-size="10" fill="#4b5563">I 6% / C 0% / O 94%</text>
<rect x="452.7" y="517.4" width="54.5" height="12.6" fill="#2563eb"/>
<rect x="452.7" y="318.5" width="54.5" height="198.9" fill="#dc2626"/>
<text x="480.0" y="552" text-anchor="middle" font-family="Arial" font-size="12" fill="#111827">284</text>
<text x="480.0" y="570" text-anchor="middle" font-family="Arial" font-size="10" fill="#4b5563">I 6% / C 0% / O 94%</text>
<rect x="525.3" y="518.0" width="54.5" height="12.0" fill="#2563eb"/>
<rect x="525.3" y="327.0" width="54.5" height="190.9" fill="#dc2626"/>
<text x="552.5" y="552" text-anchor="middle" font-family="Arial" font-size="12" fill="#111827">312</text>
<text x="552.5" y="570" text-anchor="middle" font-family="Arial" font-size="10" fill="#4b5563">I 6% / C 0% / O 94%</text>
<rect x="597.8" y="515.7" width="54.5" height="14.3" fill="#2563eb"/>
<rect x="597.8" y="289.3" width="54.5" height="226.5" fill="#dc2626"/>
<text x="625.1" y="552" text-anchor="middle" font-family="Arial" font-size="12" fill="#111827">328</text>
<text x="625.1" y="570" text-anchor="middle" font-family="Arial" font-size="10" fill="#4b5563">I 6% / C 0% / O 94%</text>
<rect x="670.4" y="514.3" width="54.5" height="15.7" fill="#2563eb"/>
<rect x="670.4" y="265.8" width="54.5" height="248.5" fill="#dc2626"/>
<text x="697.6" y="552" text-anchor="middle" font-family="Arial" font-size="12" fill="#111827">348</text>
<text x="697.6" y="570" text-anchor="middle" font-family="Arial" font-size="10" fill="#4b5563">I 6% / C 0% / O 94%</text>
<rect x="742.9" y="515.2" width="54.5" height="14.8" fill="#2563eb"/>
<rect x="742.9" y="282.9" width="54.5" height="232.3" fill="#dc2626"/>
<text x="770.2" y="552" text-anchor="middle" font-family="Arial" font-size="12" fill="#111827">368</text>
<text x="770.2" y="570" text-anchor="middle" font-family="Arial" font-size="10" fill="#4b5563">I 6% / C 0% / O 94%</text>
<rect x="815.5" y="513.7" width="54.5" height="16.3" fill="#2563eb"/>
<rect x="815.5" y="256.2" width="54.5" height="257.5" fill="#dc2626"/>
<text x="842.7" y="552" text-anchor="middle" font-family="Arial" font-size="12" fill="#111827">384</text>
<text x="842.7" y="570" text-anchor="middle" font-family="Arial" font-size="10" fill="#4b5563">I 6% / C 0% / O 94%</text>
<rect x="905" y="63" width="16" height="16" fill="#2563eb"/>
<text x="929" y="76" font-family="Arial" font-size="13" fill="#111827">Uncached input</text>
<rect x="905" y="91" width="16" height="16" fill="#059669"/>
<text x="929" y="104" font-family="Arial" font-size="13" fill="#111827">Cached prompt</text>
<rect x="905" y="119" width="16" height="16" fill="#dc2626"/>
<text x="929" y="132" font-family="Arial" font-size="13" fill="#111827">Output</text>
<text x="905" y="180" font-family="Arial" font-size="12" fill="#4b5563">Labels are request counts.</text>
<text x="905" y="199" font-family="Arial" font-size="12" fill="#4b5563">Mix: I=input, C=cached, O=output.</text>
</svg>