<svg xmlns="http://www.w3.org/2000/svg" width="980" height="640" viewBox="0 0 980 640">
<rect width="100%" height="100%" fill="#ffffff"/>
<text x="490.0" y="28" text-anchor="middle" font-family="Arial" font-size="20" font-weight="700">Token Throughput per GPU vs Interactivity</text>
<line x1="90" y1="550" x2="940" y2="550" stroke="#111827" stroke-width="1.5"/>
<line x1="90" y1="50" x2="90" y2="550" stroke="#111827" stroke-width="1.5"/>
<text x="515.0" y="612" text-anchor="middle" font-family="Arial" font-size="15">Interactivity, median tok/s/user</text>
<text x="22" y="300.0" text-anchor="middle" font-family="Arial" font-size="15" transform="rotate(-90 22 300.0)">Token Throughput per GPU, tok/s/GPU</text>
<line x1="90.0" y1="50" x2="90.0" y2="550" stroke="#e5e7eb"/>
<line x1="90" y1="550.0" x2="940" y2="550.0" stroke="#e5e7eb"/>
<text x="90.0" y="574" text-anchor="middle" font-family="Arial" font-size="12" fill="#374151">0.0</text>
<text x="78" y="554.0" text-anchor="end" font-family="Arial" font-size="12" fill="#374151">0.0</text>
<line x1="260.0" y1="50" x2="260.0" y2="550" stroke="#e5e7eb"/>
<line x1="90" y1="450.0" x2="940" y2="450.0" stroke="#e5e7eb"/>
<text x="260.0" y="574" text-anchor="middle" font-family="Arial" font-size="12" fill="#374151">7.1</text>
<text x="78" y="454.0" text-anchor="end" font-family="Arial" font-size="12" fill="#374151">227.9</text>
<line x1="430.0" y1="50" x2="430.0" y2="550" stroke="#e5e7eb"/>
<line x1="90" y1="350.0" x2="940" y2="350.0" stroke="#e5e7eb"/>
<text x="430.0" y="574" text-anchor="middle" font-family="Arial" font-size="12" fill="#374151">14.2</text>
<text x="78" y="354.0" text-anchor="end" font-family="Arial" font-size="12" fill="#374151">455.9</text>
<line x1="600.0" y1="50" x2="600.0" y2="550" stroke="#e5e7eb"/>
<line x1="90" y1="250.0" x2="940" y2="250.0" stroke="#e5e7eb"/>
<text x="600.0" y="574" text-anchor="middle" font-family="Arial" font-size="12" fill="#374151">21.4</text>
<text x="78" y="254.0" text-anchor="end" font-family="Arial" font-size="12" fill="#374151">683.8</text>
<line x1="770.0" y1="50" x2="770.0" y2="550" stroke="#e5e7eb"/>
<line x1="90" y1="150.0" x2="940" y2="150.0" stroke="#e5e7eb"/>
<text x="770.0" y="574" text-anchor="middle" font-family="Arial" font-size="12" fill="#374151">28.5</text>
<text x="78" y="154.0" text-anchor="end" font-family="Arial" font-size="12" fill="#374151">911.7</text>
<line x1="940.0" y1="50" x2="940.0" y2="550" stroke="#e5e7eb"/>
<line x1="90" y1="50.0" x2="940" y2="50.0" stroke="#e5e7eb"/>
<text x="940.0" y="574" text-anchor="middle" font-family="Arial" font-size="12" fill="#374151">35.6</text>
<text x="78" y="54.0" text-anchor="end" font-family="Arial" font-size="12" fill="#374151">1139.7</text>
<circle cx="829.1" cy="115.2" r="6" fill="#2563eb"/>
<text x="838.1" y="106.2" font-family="Arial" font-size="12" fill="#111827">vllm_batch_n256_delay0_max1024_arrivalall_at_once</text>
<circle cx="303.1" cy="420.8" r="6" fill="#059669"/>
<text x="312.1" y="411.8" font-family="Arial" font-size="12" fill="#111827">vllm_batch_n264_delay0_max1024_arrivalall_at_once</text>
<circle cx="353.9" cy="385.1" r="6" fill="#dc2626"/>
<text x="362.9" y="376.1" font-family="Arial" font-size="12" fill="#111827">vllm_batch_n272_delay0_max1024_arrivalall_at_once</text>
<circle cx="345.8" cy="385.4" r="6" fill="#7c3aed"/>
<text x="354.8" y="376.4" font-family="Arial" font-size="12" fill="#111827">vllm_batch_n280_delay0_max1024_arrivalall_at_once</text>
<circle cx="342.6" cy="385.1" r="6" fill="#ea580c"/>
<text x="351.6" y="376.1" font-family="Arial" font-size="12" fill="#111827">vllm_batch_n284_delay0_max1024_arrivalall_at_once</text>
</svg>