<svg xmlns="http://www.w3.org/2000/svg" width="1120" height="680" viewBox="0 0 1120 680">
<rect width="100%" height="100%" fill="#ffffff"/>
<text x="560.0" y="32" text-anchor="middle" font-family="Arial" font-size="20" font-weight="700">Per-GPU Token Throughput Breakdown</text>
<line x1="90" y1="530" x2="870" y2="530" stroke="#111827" stroke-width="1.5"/>
<line x1="90" y1="60" x2="90" y2="530" stroke="#111827" stroke-width="1.5"/>
<text x="22" y="295.0" text-anchor="middle" font-family="Arial" font-size="15" transform="rotate(-90 22 295.0)">tok/s/GPU</text>
<line x1="90" y1="530.0" x2="870" y2="530.0" stroke="#e5e7eb"/>
<text x="78" y="534.0" text-anchor="end" font-family="Arial" font-size="12" fill="#374151">0.0</text>
<line x1="90" y1="436.0" x2="870" y2="436.0" stroke="#e5e7eb"/>
<text x="78" y="440.0" text-anchor="end" font-family="Arial" font-size="12" fill="#374151">242.2</text>
<line x1="90" y1="342.0" x2="870" y2="342.0" stroke="#e5e7eb"/>
<text x="78" y="346.0" text-anchor="end" font-family="Arial" font-size="12" fill="#374151">484.4</text>
<line x1="90" y1="248.0" x2="870" y2="248.0" stroke="#e5e7eb"/>
<text x="78" y="252.0" text-anchor="end" font-family="Arial" font-size="12" fill="#374151">726.6</text>
<line x1="90" y1="154.0" x2="870" y2="154.0" stroke="#e5e7eb"/>
<text x="78" y="158.0" text-anchor="end" font-family="Arial" font-size="12" fill="#374151">968.8</text>
<line x1="90" y1="60.0" x2="870" y2="60.0" stroke="#e5e7eb"/>
<text x="78" y="64.0" text-anchor="end" font-family="Arial" font-size="12" fill="#374151">1211.0</text>
<rect x="90.0" y="505.9" width="64.0" height="24.1" fill="#2563eb"/>
<rect x="90.0" y="121.3" width="64.0" height="384.6" fill="#dc2626"/>
<text x="122.0" y="552" text-anchor="middle" font-family="Arial" font-size="12" fill="#111827">256</text>
<text x="122.0" y="570" text-anchor="middle" font-family="Arial" font-size="10" fill="#4b5563">I 6% / C 0% / O 94%</text>
<rect x="172.0" y="522.8" width="64.0" height="7.2" fill="#2563eb"/>
<rect x="172.0" y="408.5" width="64.0" height="114.3" fill="#dc2626"/>
<text x="204.0" y="552" text-anchor="middle" font-family="Arial" font-size="12" fill="#111827">264</text>
<text x="204.0" y="570" text-anchor="middle" font-family="Arial" font-size="10" fill="#4b5563">I 6% / C 0% / O 94%</text>
<rect x="254.0" y="520.8" width="64.0" height="9.2" fill="#2563eb"/>
<rect x="254.0" y="375.0" width="64.0" height="145.8" fill="#dc2626"/>
<text x="286.0" y="552" text-anchor="middle" font-family="Arial" font-size="12" fill="#111827">272</text>
<text x="286.0" y="570" text-anchor="middle" font-family="Arial" font-size="10" fill="#4b5563">I 6% / C 0% / O 94%</text>
<rect x="336.0" y="520.9" width="64.0" height="9.1" fill="#2563eb"/>
<rect x="336.0" y="375.3" width="64.0" height="145.6" fill="#dc2626"/>
<text x="368.0" y="552" text-anchor="middle" font-family="Arial" font-size="12" fill="#111827">280</text>
<text x="368.0" y="570" text-anchor="middle" font-family="Arial" font-size="10" fill="#4b5563">I 6% / C 0% / O 94%</text>
<rect x="418.0" y="520.8" width="64.0" height="9.2" fill="#2563eb"/>
<rect x="418.0" y="375.0" width="64.0" height="145.9" fill="#dc2626"/>
<text x="450.0" y="552" text-anchor="middle" font-family="Arial" font-size="12" fill="#111827">284</text>
<text x="450.0" y="570" text-anchor="middle" font-family="Arial" font-size="10" fill="#4b5563">I 6% / C 0% / O 94%</text>
<rect x="905" y="63" width="16" height="16" fill="#2563eb"/>
<text x="929" y="76" font-family="Arial" font-size="13" fill="#111827">Uncached input</text>
<rect x="905" y="91" width="16" height="16" fill="#059669"/>
<text x="929" y="104" font-family="Arial" font-size="13" fill="#111827">Cached prompt</text>
<rect x="905" y="119" width="16" height="16" fill="#dc2626"/>
<text x="929" y="132" font-family="Arial" font-size="13" fill="#111827">Output</text>
<text x="905" y="180" font-family="Arial" font-size="12" fill="#4b5563">Labels are request counts.</text>
<text x="905" y="199" font-family="Arial" font-size="12" fill="#4b5563">Mix: I=input, C=cached, O=output.</text>
</svg>