<svg xmlns="http://www.w3.org/2000/svg" width="980" height="640" viewBox="0 0 980 640">
<rect width="100%" height="100%" fill="#ffffff"/>
<text x="490.0" y="28" text-anchor="middle" font-family="Arial" font-size="20" font-weight="700">Token Throughput per GPU vs Interactivity</text>
<line x1="90" y1="550" x2="940" y2="550" stroke="#111827" stroke-width="1.5"/>
<line x1="90" y1="50" x2="90" y2="550" stroke="#111827" stroke-width="1.5"/>
<text x="515.0" y="612" text-anchor="middle" font-family="Arial" font-size="15">Interactivity, median tok/s/user</text>
<text x="22" y="300.0" text-anchor="middle" font-family="Arial" font-size="15" transform="rotate(-90 22 300.0)">Token Throughput per GPU, tok/s/GPU</text>
<line x1="90.0" y1="50" x2="90.0" y2="550" stroke="#e5e7eb"/>
<line x1="90" y1="550.0" x2="940" y2="550.0" stroke="#e5e7eb"/>
<text x="90.0" y="574" text-anchor="middle" font-family="Arial" font-size="12" fill="#374151">0.0</text>
<text x="78" y="554.0" text-anchor="end" font-family="Arial" font-size="12" fill="#374151">0.0</text>
<line x1="260.0" y1="50" x2="260.0" y2="550" stroke="#e5e7eb"/>
<line x1="90" y1="450.0" x2="940" y2="450.0" stroke="#e5e7eb"/>
<text x="260.0" y="574" text-anchor="middle" font-family="Arial" font-size="12" fill="#374151">19.0</text>
<text x="78" y="454.0" text-anchor="end" font-family="Arial" font-size="12" fill="#374151">210.8</text>
<line x1="430.0" y1="50" x2="430.0" y2="550" stroke="#e5e7eb"/>
<line x1="90" y1="350.0" x2="940" y2="350.0" stroke="#e5e7eb"/>
<text x="430.0" y="574" text-anchor="middle" font-family="Arial" font-size="12" fill="#374151">38.0</text>
<text x="78" y="354.0" text-anchor="end" font-family="Arial" font-size="12" fill="#374151">421.6</text>
<line x1="600.0" y1="50" x2="600.0" y2="550" stroke="#e5e7eb"/>
<line x1="90" y1="250.0" x2="940" y2="250.0" stroke="#e5e7eb"/>
<text x="600.0" y="574" text-anchor="middle" font-family="Arial" font-size="12" fill="#374151">57.0</text>
<text x="78" y="254.0" text-anchor="end" font-family="Arial" font-size="12" fill="#374151">632.5</text>
<line x1="770.0" y1="50" x2="770.0" y2="550" stroke="#e5e7eb"/>
<line x1="90" y1="150.0" x2="940" y2="150.0" stroke="#e5e7eb"/>
<text x="770.0" y="574" text-anchor="middle" font-family="Arial" font-size="12" fill="#374151">76.0</text>
<text x="78" y="154.0" text-anchor="end" font-family="Arial" font-size="12" fill="#374151">843.3</text>
<line x1="940.0" y1="50" x2="940.0" y2="550" stroke="#e5e7eb"/>
<line x1="90" y1="50.0" x2="940" y2="50.0" stroke="#e5e7eb"/>
<text x="940.0" y="574" text-anchor="middle" font-family="Arial" font-size="12" fill="#374151">95.1</text>
<text x="78" y="54.0" text-anchor="end" font-family="Arial" font-size="12" fill="#374151">1054.1</text>
<circle cx="829.1" cy="510.8" r="6" fill="#2563eb"/>
<text x="838.1" y="501.8" font-family="Arial" font-size="12" fill="#111827">vllm_batch_n8_delay0_max1024</text>
<circle cx="594.9" cy="496.4" r="6" fill="#059669"/>
<text x="603.9" y="487.4" font-family="Arial" font-size="12" fill="#111827">vllm_batch_n16_delay0_max1024</text>
<circle cx="680.4" cy="424.7" r="6" fill="#dc2626"/>
<text x="689.4" y="415.7" font-family="Arial" font-size="12" fill="#111827">vllm_batch_n32_delay0_max1024</text>
<circle cx="625.6" cy="322.7" r="6" fill="#7c3aed"/>
<text x="634.6" y="313.7" font-family="Arial" font-size="12" fill="#111827">vllm_batch_n64_delay0_max1024</text>
<circle cx="493.5" cy="207.4" r="6" fill="#ea580c"/>
<text x="502.5" y="198.4" font-family="Arial" font-size="12" fill="#111827">vllm_batch_n128_delay0_max1024</text>
<circle cx="346.0" cy="115.2" r="6" fill="#0891b2"/>
<text x="355.0" y="106.2" font-family="Arial" font-size="12" fill="#111827">vllm_batch_n256_delay0_max1024</text>
<circle cx="114.2" cy="488.5" r="6" fill="#2563eb"/>
<text x="123.2" y="479.5" font-family="Arial" font-size="12" fill="#111827">vllm_batch_n384_delay0_max1024</text>
<circle cx="151.9" cy="353.1" r="6" fill="#059669"/>
<text x="160.9" y="344.1" font-family="Arial" font-size="12" fill="#111827">vllm_batch_n480_delay0_max1024</text>
</svg>