<svg xmlns="http://www.w3.org/2000/svg" width="1120" height="680" viewBox="0 0 1120 680">
<rect width="100%" height="100%" fill="#ffffff"/>
<text x="560.0" y="32" text-anchor="middle" font-family="Arial" font-size="20" font-weight="700">Per-GPU Token Throughput Breakdown</text>
<line x1="90" y1="530" x2="870" y2="530" stroke="#111827" stroke-width="1.5"/>
<line x1="90" y1="60" x2="90" y2="530" stroke="#111827" stroke-width="1.5"/>
<text x="22" y="295.0" text-anchor="middle" font-family="Arial" font-size="15" transform="rotate(-90 22 295.0)">tok/s/GPU</text>
<line x1="90" y1="530.0" x2="870" y2="530.0" stroke="#e5e7eb"/>
<text x="78" y="534.0" text-anchor="end" font-family="Arial" font-size="12" fill="#374151">0.0</text>
<line x1="90" y1="436.0" x2="870" y2="436.0" stroke="#e5e7eb"/>
<text x="78" y="440.0" text-anchor="end" font-family="Arial" font-size="12" fill="#374151">232.1</text>
<line x1="90" y1="342.0" x2="870" y2="342.0" stroke="#e5e7eb"/>
<text x="78" y="346.0" text-anchor="end" font-family="Arial" font-size="12" fill="#374151">464.2</text>
<line x1="90" y1="248.0" x2="870" y2="248.0" stroke="#e5e7eb"/>
<text x="78" y="252.0" text-anchor="end" font-family="Arial" font-size="12" fill="#374151">696.3</text>
<line x1="90" y1="154.0" x2="870" y2="154.0" stroke="#e5e7eb"/>
<text x="78" y="158.0" text-anchor="end" font-family="Arial" font-size="12" fill="#374151">928.4</text>
<line x1="90" y1="60.0" x2="870" y2="60.0" stroke="#e5e7eb"/>
<text x="78" y="64.0" text-anchor="end" font-family="Arial" font-size="12" fill="#374151">1160.6</text>
<rect x="90.0" y="519.4" width="54.5" height="10.6" fill="#2563eb"/>
<rect x="90.0" y="348.6" width="54.5" height="170.8" fill="#dc2626"/>
<text x="117.3" y="552" text-anchor="middle" font-family="Arial" font-size="12" fill="#111827">64</text>
<text x="117.3" y="570" text-anchor="middle" font-family="Arial" font-size="10" fill="#4b5563">I 6% / C 0% / O 94%</text>
<rect x="162.5" y="513.6" width="54.5" height="16.4" fill="#2563eb"/>
<rect x="162.5" y="252.2" width="54.5" height="261.4" fill="#dc2626"/>
<text x="189.8" y="552" text-anchor="middle" font-family="Arial" font-size="12" fill="#111827">128</text>
<text x="189.8" y="570" text-anchor="middle" font-family="Arial" font-size="10" fill="#4b5563">I 6% / C 0% / O 94%</text>
<rect x="235.1" y="508.8" width="54.5" height="21.2" fill="#2563eb"/>
<rect x="235.1" y="169.6" width="54.5" height="339.2" fill="#dc2626"/>
<text x="262.4" y="552" text-anchor="middle" font-family="Arial" font-size="12" fill="#111827">192</text>
<text x="262.4" y="570" text-anchor="middle" font-family="Arial" font-size="10" fill="#4b5563">I 6% / C 0% / O 94%</text>
<rect x="307.6" y="506.9" width="54.5" height="23.1" fill="#2563eb"/>
<rect x="307.6" y="138.1" width="54.5" height="368.8" fill="#dc2626"/>
<text x="334.9" y="552" text-anchor="middle" font-family="Arial" font-size="12" fill="#111827">224</text>
<text x="334.9" y="570" text-anchor="middle" font-family="Arial" font-size="10" fill="#4b5563">I 6% / C 0% / O 94%</text>
<rect x="380.2" y="505.9" width="54.5" height="24.1" fill="#2563eb"/>
<rect x="380.2" y="121.3" width="54.5" height="384.6" fill="#dc2626"/>
<text x="407.5" y="552" text-anchor="middle" font-family="Arial" font-size="12" fill="#111827">256</text>
<text x="407.5" y="570" text-anchor="middle" font-family="Arial" font-size="10" fill="#4b5563">I 6% / C 0% / O 94%</text>
<rect x="452.7" y="522.6" width="54.5" height="7.4" fill="#2563eb"/>
<rect x="452.7" y="404.4" width="54.5" height="118.1" fill="#dc2626"/>
<text x="480.0" y="552" text-anchor="middle" font-family="Arial" font-size="12" fill="#111827">284</text>
<text x="480.0" y="570" text-anchor="middle" font-family="Arial" font-size="10" fill="#4b5563">I 6% / C 0% / O 94%</text>
<rect x="525.3" y="520.1" width="54.5" height="9.9" fill="#2563eb"/>
<rect x="525.3" y="363.3" width="54.5" height="156.8" fill="#dc2626"/>
<text x="552.5" y="552" text-anchor="middle" font-family="Arial" font-size="12" fill="#111827">312</text>
<text x="552.5" y="570" text-anchor="middle" font-family="Arial" font-size="10" fill="#4b5563">I 6% / C 0% / O 94%</text>
<rect x="597.8" y="522.5" width="54.5" height="7.5" fill="#2563eb"/>
<rect x="597.8" y="403.0" width="54.5" height="119.5" fill="#dc2626"/>
<text x="625.1" y="552" text-anchor="middle" font-family="Arial" font-size="12" fill="#111827">328</text>
<text x="625.1" y="570" text-anchor="middle" font-family="Arial" font-size="10" fill="#4b5563">I 6% / C 0% / O 94%</text>
<rect x="670.4" y="518.9" width="54.5" height="11.1" fill="#2563eb"/>
<rect x="670.4" y="343.0" width="54.5" height="175.9" fill="#dc2626"/>
<text x="697.6" y="552" text-anchor="middle" font-family="Arial" font-size="12" fill="#111827">348</text>
<text x="697.6" y="570" text-anchor="middle" font-family="Arial" font-size="10" fill="#4b5563">I 6% / C 0% / O 94%</text>
<rect x="742.9" y="518.1" width="54.5" height="11.9" fill="#2563eb"/>
<rect x="742.9" y="334.0" width="54.5" height="184.2" fill="#dc2626"/>
<text x="770.2" y="552" text-anchor="middle" font-family="Arial" font-size="12" fill="#111827">368</text>
<text x="770.2" y="570" text-anchor="middle" font-family="Arial" font-size="10" fill="#4b5563">I 6% / C 0% / O 94%</text>
<rect x="815.5" y="518.5" width="54.5" height="11.5" fill="#2563eb"/>
<rect x="815.5" y="336.3" width="54.5" height="182.3" fill="#dc2626"/>
<text x="842.7" y="552" text-anchor="middle" font-family="Arial" font-size="12" fill="#111827">384</text>
<text x="842.7" y="570" text-anchor="middle" font-family="Arial" font-size="10" fill="#4b5563">I 6% / C 0% / O 94%</text>
<rect x="905" y="63" width="16" height="16" fill="#2563eb"/>
<text x="929" y="76" font-family="Arial" font-size="13" fill="#111827">Uncached input</text>
<rect x="905" y="91" width="16" height="16" fill="#059669"/>
<text x="929" y="104" font-family="Arial" font-size="13" fill="#111827">Cached prompt</text>
<rect x="905" y="119" width="16" height="16" fill="#dc2626"/>
<text x="929" y="132" font-family="Arial" font-size="13" fill="#111827">Output</text>
<text x="905" y="180" font-family="Arial" font-size="12" fill="#4b5563">Labels are request counts.</text>
<text x="905" y="199" font-family="Arial" font-size="12" fill="#4b5563">Mix: I=input, C=cached, O=output.</text>
</svg>